<svg width="21" height="20" viewBox="0 0 21 20" fill="none" xmlns="http://www.w3.org/2000/svg">
<path d="M10.5938 1.80723C13.2444 1.80723 13.6058 1.80723 14.6901 1.80723C15.654 1.80723 16.1359 2.04819 16.4974 2.16868C16.9793 2.40964 17.3407 2.53012 17.7022 2.89157C18.0636 3.25301 18.3046 3.61446 18.4251 4.09639C18.5456 4.45783 18.666 4.93976 18.7865 5.90362C18.7865 6.98795 18.7865 7.22892 18.7865 10C18.7865 12.7711 18.7865 13.0121 18.7865 14.0964C18.7865 15.0602 18.5456 15.5422 18.4251 15.9036C18.1841 16.3855 18.0636 16.747 17.7022 17.1084C17.3407 17.4699 16.9793 17.7108 16.4974 17.8313C16.1359 17.9518 15.654 18.0723 14.6901 18.1928C13.6058 18.1928 13.3648 18.1928 10.5938 18.1928C7.82267 18.1928 7.5817 18.1928 6.49737 18.1928C5.53351 18.1928 5.05158 17.9518 4.69014 17.8313C4.20821 17.5904 3.84676 17.4699 3.48532 17.1084C3.12387 16.747 2.88291 16.3855 2.76243 15.9036C2.64194 15.5422 2.52146 15.0602 2.40098 14.0964C2.40098 13.0121 2.40098 12.7711 2.40098 10C2.40098 7.22892 2.40098 6.98795 2.40098 5.90362C2.40098 4.93976 2.64194 4.45783 2.76243 4.09639C3.00339 3.61446 3.12387 3.25301 3.48532 2.89157C3.84676 2.53012 4.20821 2.28916 4.69014 2.16868C5.05158 2.04819 5.53351 1.92771 6.49737 1.80723C7.5817 1.80723 7.94315 1.80723 10.5938 1.80723ZM10.5938 0C7.82267 0 7.5817 0 6.49737 0C5.41303 0 4.69014 0.240965 4.08773 0.481928C3.48532 0.722892 2.88291 1.08434 2.2805 1.68675C1.67809 2.28916 1.43712 2.77109 1.07568 3.49398C0.834715 4.09639 0.714232 4.81928 0.59375 5.90362C0.59375 6.98795 0.59375 7.3494 0.59375 10C0.59375 12.7711 0.59375 13.0121 0.59375 14.0964C0.59375 15.1807 0.834715 15.9036 1.07568 16.506C1.31664 17.1084 1.67809 17.7108 2.2805 18.3133C2.88291 18.9157 3.36484 19.1566 4.08773 19.5181C4.69014 19.759 5.41303 19.8795 6.49737 20C7.5817 20 7.94315 20 10.5938 20C13.2444 20 13.6058 20 14.6901 20C15.7745 20 16.4974 19.759 17.0998 19.5181C17.7022 19.2771 18.3046 18.9157 18.907 18.3133C19.5094 17.7108 19.7504 17.2289 20.1118 16.506C20.3528 15.9036 20.4733 15.1807 20.5938 14.0964C20.5938 13.0121 20.5938 12.6506 20.5938 10C20.5938 7.3494 20.5938 6.98795 20.5938 5.90362C20.5938 4.81928 20.3528 4.09639 20.1118 3.49398C19.8709 2.89157 19.5094 2.28916 18.907 1.68675C18.3046 1.08434 17.8227 0.843374 17.0998 0.481928C16.4974 0.240965 15.7745 0.120482 14.6901 0C13.6058 0 13.3648 0 10.5938 0Z" fill="#3A4F39"/>
<path d="M10.5938 4.81928C7.70218 4.81928 5.41303 7.10843 5.41303 10C5.41303 12.8916 7.70218 15.1807 10.5938 15.1807C13.4853 15.1807 15.7745 12.8916 15.7745 10C15.7745 7.10843 13.4853 4.81928 10.5938 4.81928ZM10.5938 13.3735C8.78652 13.3735 7.22026 11.9277 7.22026 10C7.22026 8.19277 8.66604 6.62651 10.5938 6.62651C12.401 6.62651 13.9672 8.07229 13.9672 10C13.9672 11.8072 12.401 13.3735 10.5938 13.3735Z" fill="#3A4F39"/>
<path d="M15.895 5.90362C16.5604 5.90362 17.0998 5.3642 17.0998 4.6988C17.0998 4.03339 16.5604 3.49398 15.895 3.49398C15.2296 3.49398 14.6901 4.03339 14.6901 4.6988C14.6901 5.3642 15.2296 5.90362 15.895 5.90362Z" fill="#3A4F39"/>
</svg>
