<svg width="24" height="13" viewBox="0 0 24 13" fill="none" xmlns="http://www.w3.org/2000/svg">
<path d="M23.12 4.4099L19.25 0.4999C19.157 0.406171 19.0464 0.331777 18.9246 0.281008C18.8027 0.23024 18.672 0.204102 18.54 0.204102C18.408 0.204102 18.2773 0.23024 18.1554 0.281008C18.0336 0.331777 17.923 0.406171 17.83 0.4999C17.6437 0.687262 17.5392 0.940714 17.5392 1.2049C17.5392 1.46909 17.6437 1.72254 17.83 1.9099L21.39 5.4999H1C0.734784 5.4999 0.48043 5.60526 0.292893 5.79279C0.105357 5.98033 0 6.23468 0 6.4999H0C0 6.76512 0.105357 7.01947 0.292893 7.20701C0.48043 7.39454 0.734784 7.4999 1 7.4999H21.45L17.83 11.1099C17.7363 11.2029 17.6619 11.3135 17.6111 11.4353C17.5603 11.5572 17.5342 11.6879 17.5342 11.8199C17.5342 11.9519 17.5603 12.0826 17.6111 12.2045C17.6619 12.3263 17.7363 12.4369 17.83 12.5299C17.923 12.6236 18.0336 12.698 18.1554 12.7488C18.2773 12.7996 18.408 12.8257 18.54 12.8257C18.672 12.8257 18.8027 12.7996 18.9246 12.7488C19.0464 12.698 19.157 12.6236 19.25 12.5299L23.12 8.6499C23.6818 8.0874 23.9974 7.3249 23.9974 6.5299C23.9974 5.7349 23.6818 4.9724 23.12 4.4099Z" fill="#F8D254"/>
</svg>
