<svg width="22" height="14" viewBox="0 0 22 14" fill="none" xmlns="http://www.w3.org/2000/svg">
<path d="M9.27901 5.553C9.66198 4.97855 9.85346 4.30835 9.85346 3.54242C9.85346 1.53186 8.13012 0 6.2153 0H0.6623C0.375076 0 0.183594 0.191483 0.183594 0.478706V12.6378C0.183594 12.9251 0.375076 13.1165 0.6623 13.1165H6.78974C9.08753 13.1165 11.0024 11.2975 11.0024 8.99967C11.0024 7.56355 10.3322 6.31893 9.27901 5.553ZM2.57713 2.48927H6.2153C6.88548 2.48927 7.36419 3.06372 7.36419 3.63817C7.36419 4.30836 6.78974 4.78706 6.2153 4.78706H2.57713V2.48927ZM6.88548 10.723H2.57713V7.27634H6.88548C7.84289 7.27634 8.60883 8.04226 8.60883 8.99967C8.60883 9.95709 7.84289 10.723 6.88548 10.723Z" fill="#3A4F39"/>
<path d="M21.6296 8.13801C21.6296 5.26578 19.4276 2.96799 16.6511 2.96799C13.8746 2.96799 11.6725 5.26578 11.6725 8.13801C11.6725 11.0103 13.8746 13.308 16.6511 13.308C18.2787 13.308 19.8106 12.4464 20.768 11.0103C20.8637 10.8188 20.9594 10.6273 21.0552 10.4358C21.1509 10.3401 21.0552 10.1486 20.8637 10.1486H18.4702C18.3744 10.1486 18.3744 10.1486 18.2787 10.2443C17.8 10.723 17.2255 10.9145 16.6511 10.9145C15.4065 10.9145 14.449 10.0528 14.1618 8.8082H21.1509C21.4382 8.8082 21.6296 8.61672 21.6296 8.32949V8.13801ZM16.6511 5.45726C17.5128 5.45726 18.2787 5.93597 18.7574 6.7019H14.5448C14.9277 5.93597 15.7894 5.45726 16.6511 5.45726Z" fill="#3A4F39"/>
<path d="M18.6617 2.39355H14.2576C14.0661 2.39355 13.8746 2.20206 13.8746 2.01058V0.957427C13.8746 0.765944 14.0661 0.57446 14.2576 0.57446H18.6617C18.8531 0.57446 19.0446 0.765944 19.0446 0.957427V2.10632C19.0446 2.20206 18.9489 2.39355 18.6617 2.39355Z" fill="#3A4F39"/>
</svg>
