<svg width="72" height="44" viewBox="0 0 72 44" fill="none" xmlns="http://www.w3.org/2000/svg">
<path d="M6.59201 2.00453H12.7419L17.4472 30.6906H12.907L12.0815 24.9944V25.0763H6.9222L6.09671 30.6906H1.88672L6.59201 2.00453ZM11.5449 21.1832L9.52249 7.00411H9.43994L7.45877 21.1832H11.5449Z" fill="white"/>
<path d="M25.9668 31.1004C23.793 31.1004 22.1283 30.4857 20.9726 29.2563C19.8444 28.0269 19.2803 26.2921 19.2803 24.0518V8.64331C19.2803 6.40306 19.8444 4.66824 20.9726 3.43883C22.1283 2.20943 23.793 1.59473 25.9668 1.59473C28.1406 1.59473 29.7916 2.20943 30.9197 3.43883C32.0754 4.66824 32.6533 6.40306 32.6533 8.64331V11.6758H28.3607V8.35645C28.3607 6.58064 27.604 5.69274 26.0906 5.69274C24.5772 5.69274 23.8205 6.58064 23.8205 8.35645V24.3797C23.8205 26.1282 24.5772 27.0024 26.0906 27.0024C27.604 27.0024 28.3607 26.1282 28.3607 24.3797V19.9948H32.6533V24.0518C32.6533 26.2921 32.0754 28.0269 30.9197 29.2563C29.7916 30.4857 28.1406 31.1004 25.9668 31.1004Z" fill="white"/>
<path d="M35.3696 2.00453H41.8497L44.7389 22.5356H44.8215L47.7107 2.00453H54.1908V30.6906H49.8982V8.97115H49.8157L46.5137 30.6906H42.7165L39.4145 8.97115H39.332V30.6906H35.3696V2.00453Z" fill="white"/>
<path d="M57.5788 2.00453H69.9612V6.10254H62.119V13.6839H68.3515V17.7819H62.119V26.5926H69.9612V30.6906H57.5788V2.00453Z" fill="white"/>
<path fill-rule="evenodd" clip-rule="evenodd" d="M5.23045 0.409801H14.1031L17.6784 22.2071V8.64349C17.6784 6.14475 18.3104 3.97548 19.79 2.36317L19.7964 2.3561L19.803 2.34911C21.3422 0.711731 23.4834 0 25.9666 0C28.4441 0 30.5797 0.708995 32.0954 2.35594C32.8696 3.18172 33.4175 4.15494 33.7677 5.2448V0.409801H43.2425L44.78 11.3356L46.3176 0.409801H55.7924V32.2857H48.2963V29.6203L47.8911 32.2857H41.3388L40.9336 29.6203V32.2857H33.7677V27.4507C33.4175 28.5405 32.8697 29.5137 32.0954 30.3395C30.5798 31.9865 28.4441 32.6955 25.9666 32.6955C23.4834 32.6955 21.3422 31.9838 19.803 30.3464L19.7964 30.3394L19.79 30.3323C19.3939 29.9008 19.0586 29.4293 18.7799 28.9222L19.3316 32.2857H11.5196L10.706 26.6714H8.30634L7.48085 32.2857H0.00195312L5.23045 0.409801ZM6.92202 25.0765H12.0813V24.9946L12.9068 30.6908H17.447L12.7417 2.0047H6.59182L1.88653 30.6908H6.09653L6.92202 25.0765ZM33.7677 18.4001V13.2709H26.7588V8.35663C26.7588 7.65644 26.6041 7.42872 26.5717 7.39078C26.5611 7.3783 26.5465 7.36285 26.498 7.34388C26.4398 7.32111 26.315 7.28782 26.0904 7.28782C25.8659 7.28782 25.7411 7.32111 25.6829 7.34388C25.6344 7.36285 25.6198 7.3783 25.6092 7.39078C25.5768 7.42872 25.4221 7.65644 25.4221 8.35663V24.3799C25.4221 25.0615 25.5747 25.2751 25.6012 25.3057C25.6099 25.3158 25.6241 25.3315 25.6751 25.3511C25.7357 25.3745 25.8633 25.4077 26.0904 25.4077C26.3176 25.4077 26.4452 25.3745 26.5058 25.3511C26.5568 25.3315 26.571 25.3158 26.5797 25.3057C26.6062 25.2751 26.7588 25.0615 26.7588 24.3799V18.4001H33.7677ZM39.3318 8.97133H39.4144L42.7163 30.6908H46.5136L49.8155 8.97133H49.8981V30.6908H54.1906V2.0047H47.7105L44.8213 22.5358H44.7388L41.8495 2.0047H35.3695V30.6908H39.3318V8.97133ZM55.9769 0.409801H71.5627V7.69762H63.7206V12.0891H69.953V19.377H63.7206V24.9979H71.5627V32.2857H55.9769V0.409801ZM62.1188 26.5928V17.7821H68.3513V13.684H62.1188V6.10272H69.961V2.0047H57.5787V30.6908H69.961V26.5928H62.1188ZM9.43976 7.00428H9.52231L11.5448 21.1834H7.45858L9.43976 7.00428ZM9.49696 18.1689L9.29861 19.5885H9.69944L9.49696 18.1689ZM20.9724 29.2565C22.1281 30.4859 23.7928 31.1006 25.9666 31.1006C28.1404 31.1006 29.7914 30.4859 30.9196 29.2565C32.0752 28.0271 32.6531 26.2923 32.6531 24.052V19.995H28.3605V24.3799C28.3605 26.1283 27.6038 27.0026 26.0904 27.0026C24.577 27.0026 23.8204 26.1283 23.8204 24.3799V8.35663C23.8204 6.58082 24.577 5.69292 26.0904 5.69292C27.6038 5.69292 28.3605 6.58082 28.3605 8.35663V11.676H32.6531V8.64349C32.6531 6.40324 32.0752 4.66841 30.9196 3.43901C29.7914 2.20961 28.1404 1.5949 25.9666 1.5949C23.7928 1.5949 22.1281 2.20961 20.9724 3.43901C19.8442 4.66841 19.2802 6.40324 19.2802 8.64349V24.052C19.2802 26.2923 19.8442 28.0271 20.9724 29.2565Z" fill="#3A4F39"/>
<path d="M0 41.4816C0 42.2853 0.281558 42.9068 0.844674 43.346C1.40779 43.7821 2.12263 44.0001 2.98921 44.0001C3.84327 44.0001 4.49867 43.8304 4.95542 43.4908C5.4153 43.1482 5.67339 42.7245 5.7297 42.2199L5.7344 42.1638H4.59409L4.58939 42.2199C4.5675 42.4255 4.43141 42.6217 4.18114 42.8086C3.93086 42.9955 3.53355 43.089 2.98921 43.089C2.44486 43.089 2.00375 42.9535 1.66588 42.6825C1.32801 42.4115 1.15908 42.0268 1.15908 41.5283V41.1359C1.15908 40.6655 1.32801 40.2886 1.66588 40.0051C2.00688 39.7185 2.44643 39.5752 2.98451 39.5752C3.51322 39.5752 3.90114 39.6687 4.14829 39.8556C4.39543 40.0394 4.54247 40.234 4.58939 40.4396L4.59409 40.5004H5.7344L5.7297 40.4443C5.63898 39.9428 5.37306 39.5207 4.93196 39.178C4.49085 38.8354 3.84327 38.6641 2.98921 38.6641C2.12263 38.6641 1.40779 38.8821 0.844674 39.3182C0.281558 39.7543 0 40.3758 0 41.1826V41.4816Z" fill="#3A4F39"/>
<path d="M7.24129 41.4816C7.24129 42.2884 7.52285 42.9099 8.08597 43.346C8.64908 43.7821 9.37488 44.0001 10.2633 44.0001C11.1487 44.0001 11.8729 43.7821 12.436 43.346C13.0023 42.9099 13.2854 42.2884 13.2854 41.4816V41.1826C13.2854 40.3758 13.0023 39.7543 12.436 39.3182C11.8729 38.8821 11.1487 38.6641 10.2633 38.6641C9.37488 38.6641 8.64908 38.8821 8.08597 39.3182C7.52285 39.7543 7.24129 40.3758 7.24129 41.1826V41.4816ZM8.39568 41.5237V41.1452C8.39568 40.6406 8.56462 40.2527 8.90249 39.9817C9.24348 39.7107 9.69711 39.5752 10.2633 39.5752C10.8265 39.5752 11.2785 39.7107 11.6195 39.9817C11.9605 40.2527 12.131 40.6406 12.131 41.1452V41.5237C12.131 42.0252 11.9605 42.4115 11.6195 42.6825C11.2785 42.9535 10.8265 43.089 10.2633 43.089C9.69711 43.089 9.24348 42.9535 8.90249 42.6825C8.56462 42.4115 8.39568 42.0252 8.39568 41.5237Z" fill="#3A4F39"/>
<path d="M15.2099 43.86H16.3456V42.033H17.5891C18.3681 42.033 18.9703 41.8803 19.3958 41.5751C19.8244 41.2698 20.0387 40.8633 20.0387 40.3555C20.0387 39.8758 19.8244 39.4973 19.3958 39.2201C18.9703 38.9429 18.3681 38.8042 17.5891 38.8042H15.2099V43.86ZM16.3456 41.1499V39.6874H17.575C18.0693 39.6874 18.4135 39.7497 18.6074 39.8743C18.8045 39.9989 18.903 40.1608 18.903 40.3602C18.903 40.5876 18.8045 40.7761 18.6074 40.9256C18.4135 41.0751 18.0693 41.1499 17.575 41.1499H16.3456ZM19.0954 43.86H20.3718L18.6872 41.5611L17.4343 41.5283L19.0954 43.86Z" fill="#3A4F39"/>
<path d="M21.9351 43.86H23.0707V42.0937H24.3752C25.1667 42.0937 25.7736 41.9411 26.196 41.6358C26.6214 41.3305 26.8342 40.9178 26.8342 40.3976C26.8342 39.9023 26.6214 39.5129 26.196 39.2294C25.7736 38.946 25.1683 38.8042 24.3799 38.8042H21.9351V43.86ZM23.0707 41.2106V39.6874H24.3377C24.8445 39.6874 25.198 39.7528 25.3982 39.8836C25.6016 40.0144 25.7032 40.1858 25.7032 40.3976C25.7032 40.6374 25.6016 40.8337 25.3982 40.9863C25.198 41.1359 24.8445 41.2106 24.3377 41.2106H23.0707Z" fill="#3A4F39"/>
<path d="M28.2144 41.4816C28.2144 42.2884 28.4959 42.9099 29.059 43.346C29.6221 43.7821 30.3479 44.0001 31.2364 44.0001C32.1218 44.0001 32.846 43.7821 33.4091 43.346C33.9753 42.9099 34.2585 42.2884 34.2585 41.4816V41.1826C34.2585 40.3758 33.9753 39.7543 33.4091 39.3182C32.846 38.8821 32.1218 38.6641 31.2364 38.6641C30.3479 38.6641 29.6221 38.8821 29.059 39.3182C28.4959 39.7543 28.2144 40.3758 28.2144 41.1826V41.4816ZM29.3687 41.5237V41.1452C29.3687 40.6406 29.5377 40.2527 29.8755 39.9817C30.2165 39.7107 30.6702 39.5752 31.2364 39.5752C31.7995 39.5752 32.2516 39.7107 32.5926 39.9817C32.9336 40.2527 33.1041 40.6406 33.1041 41.1452V41.5237C33.1041 42.0252 32.9336 42.4115 32.5926 42.6825C32.2516 42.9535 31.7995 43.089 31.2364 43.089C30.6702 43.089 30.2165 42.9535 29.8755 42.6825C29.5377 42.4115 29.3687 42.0252 29.3687 41.5237Z" fill="#3A4F39"/>
<path d="M36.183 43.86H37.3186V42.033H38.5622C39.3412 42.033 39.9434 41.8803 40.3688 41.5751C40.7974 41.2698 41.0117 40.8633 41.0117 40.3555C41.0117 39.8758 40.7974 39.4973 40.3688 39.2201C39.9434 38.9429 39.3412 38.8042 38.5622 38.8042H36.183V43.86ZM37.3186 41.1499V39.6874H38.5481C39.0424 39.6874 39.3865 39.7497 39.5805 39.8743C39.7776 39.9989 39.8761 40.1608 39.8761 40.3602C39.8761 40.5876 39.7776 40.7761 39.5805 40.9256C39.3865 41.0751 39.0424 41.1499 38.5481 41.1499H37.3186ZM40.0685 43.86H41.3449L39.6603 41.5611L38.4073 41.5283L40.0685 43.86Z" fill="#3A4F39"/>
<path d="M42.0916 43.86H43.1615L44.9916 40.1873C45.0292 40.1063 45.0636 40.0285 45.0949 39.9537C45.1293 39.8789 45.159 39.8026 45.184 39.7247H45.231C45.2591 39.8026 45.2888 39.8789 45.3201 39.9537C45.3514 40.0285 45.3874 40.1063 45.4281 40.1873L47.2488 43.86H48.4313L45.8222 38.7809H44.6913L42.0916 43.86ZM43.2507 42.7993H47.216L46.8124 41.9208L43.6542 41.9162L43.2507 42.7993Z" fill="#3A4F39"/>
<path d="M48.5211 39.692H50.6938V43.86H51.8294V39.692H54.0068V38.8042H48.5211V39.692Z" fill="#3A4F39"/>
<path d="M55.5277 43.86H56.6587V38.8042H55.5277V43.86Z" fill="#3A4F39"/>
<path d="M58.5926 41.4816C58.5926 42.2884 58.8741 42.9099 59.4373 43.346C60.0004 43.7821 60.7262 44.0001 61.6146 44.0001C62.5 44.0001 63.2242 43.7821 63.7873 43.346C64.3536 42.9099 64.6367 42.2884 64.6367 41.4816V41.1826C64.6367 40.3758 64.3536 39.7543 63.7873 39.3182C63.2242 38.8821 62.5 38.6641 61.6146 38.6641C60.7262 38.6641 60.0004 38.8821 59.4373 39.3182C58.8741 39.7543 58.5926 40.3758 58.5926 41.1826V41.4816ZM59.747 41.5237V41.1452C59.747 40.6406 59.9159 40.2527 60.2538 39.9817C60.5948 39.7107 61.0484 39.5752 61.6146 39.5752C62.1777 39.5752 62.6298 39.7107 62.9708 39.9817C63.3118 40.2527 63.4823 40.6406 63.4823 41.1452V41.5237C63.4823 42.0252 63.3118 42.4115 62.9708 42.6825C62.6298 42.9535 62.1777 43.089 61.6146 43.089C61.0484 43.089 60.5948 42.9535 60.2538 42.6825C59.9159 42.4115 59.747 42.0252 59.747 41.5237Z" fill="#3A4F39"/>
<path d="M66.5612 43.86H67.5983V40.6873C67.5983 40.6156 67.5936 40.5378 67.5842 40.4537C67.5748 40.3695 67.5639 40.2917 67.5514 40.22H67.603C67.6405 40.2823 67.6828 40.3477 67.7297 40.4163C67.7798 40.4848 67.8345 40.5533 67.8939 40.6219L70.7799 43.86H72V38.8042H70.9629V41.9629C70.9629 42.0377 70.9661 42.1233 70.9723 42.2199C70.9817 42.3133 70.9942 42.3974 71.0098 42.4722H70.9629C70.9191 42.4068 70.8722 42.3367 70.8221 42.2619C70.7721 42.1872 70.7173 42.1155 70.6579 42.047L67.7719 38.8042H66.5612V43.86Z" fill="#3A4F39"/>
</svg>
