<svg width="24" height="24" viewBox="0 0 24 24" fill="none" xmlns="http://www.w3.org/2000/svg">
<path d="M9.33282 15.9188L5.41382 11.9998C5.22629 11.8123 4.97198 11.707 4.70682 11.707C4.44165 11.707 4.18735 11.8123 3.99982 11.9998C3.81235 12.1873 3.70703 12.4416 3.70703 12.7068C3.70703 12.972 3.81235 13.2263 3.99982 13.4138L7.91882 17.3328C8.10455 17.5186 8.32506 17.666 8.56776 17.7666C8.81047 17.8671 9.07061 17.9189 9.33332 17.9189C9.59603 17.9189 9.85617 17.8671 10.0989 17.7666C10.3416 17.666 10.5621 17.5186 10.7478 17.3328L19.9998 8.08081C20.1873 7.89328 20.2926 7.63897 20.2926 7.37381C20.2926 7.10864 20.1873 6.85434 19.9998 6.66681C19.8123 6.47934 19.558 6.37402 19.2928 6.37402C19.0277 6.37402 18.7733 6.47934 18.5858 6.66681L9.33282 15.9188Z" fill="#3A4F39"/>
</svg>
