<svg width="21" height="16" viewBox="0 0 21 16" fill="none" xmlns="http://www.w3.org/2000/svg">
<path d="M20.4027 1.89999C19.7027 2.19999 18.9027 2.4 18.1027 2.5C18.9027 2 19.6027 1.2 19.9027 0.300003C19.1027 0.800003 18.3027 1.1 17.3027 1.3C16.6027 0.500003 15.5027 0 14.4027 0C12.2027 0 10.4027 1.8 10.4027 4C10.4027 4.3 10.4027 4.59999 10.5027 4.89999C7.20273 4.69999 4.20273 3.1 2.20273 0.699997C1.90273 1.3 1.70273 2 1.70273 2.7C1.70273 4.1 2.40273 5.3 3.50273 6C2.80273 6 2.20273 5.8 1.70273 5.5C1.70273 7.4 3.10273 9.09999 4.90273 9.39999C4.60273 9.49999 4.20273 9.5 3.80273 9.5C3.50273 9.5 3.30273 9.49999 3.00273 9.39999C3.50273 11 5.00273 12.2 6.80273 12.2C5.40273 13.3 3.70273 13.9 1.80273 13.9C1.50273 13.9 1.20273 13.9 0.802734 13.8C2.60273 14.9 4.70273 15.6 7.00273 15.6C14.4027 15.6 18.4027 9.5 18.4027 4.2V3.7C19.2027 3.4 19.9027 2.69999 20.4027 1.89999Z" fill="#3A4F39"/>
</svg>
